<svg width="23" height="23" viewBox="0 0 23 23" fill="none" xmlns="http://www.w3.org/2000/svg">
<circle cx="11.5" cy="11.5" r="11.1515" stroke="#A9A9A9" stroke-width="0.69697"/>
<path d="M11.691 13.9272H10.7152C10.7152 13.0908 11.0312 12.3567 11.6631 11.7248C11.7374 11.6504 11.8861 11.5064 12.1092 11.2927C12.3415 11.0789 12.5087 10.9163 12.611 10.8048C12.7132 10.6933 12.8386 10.5446 12.9873 10.3587C13.136 10.1636 13.2382 9.9777 13.294 9.80114C13.359 9.61528 13.3916 9.42477 13.3916 9.22962C13.3916 8.70922 13.2104 8.30962 12.8479 8.03083C12.4948 7.74275 12.0209 7.59871 11.4261 7.59871C10.2831 7.59871 9.57683 8.06801 9.30733 9.00659L8.48491 8.54659C8.69865 7.94255 9.06572 7.47791 9.58612 7.15265C10.1158 6.81811 10.7292 6.65083 11.4261 6.65083C12.2439 6.65083 12.9362 6.87851 13.5031 7.33386C14.0793 7.77993 14.3673 8.41185 14.3673 9.22962C14.3673 9.94518 14.0514 10.6189 13.4195 11.2508C13.3823 11.2787 13.2708 11.3809 13.0849 11.5575C12.9083 11.7248 12.7922 11.8409 12.7364 11.906C12.6807 11.9617 12.5784 12.0686 12.4298 12.2266C12.2811 12.3846 12.1788 12.5147 12.1231 12.6169C12.0673 12.7191 11.9976 12.8492 11.914 13.0072C11.8304 13.1559 11.77 13.3092 11.7328 13.4672C11.7049 13.6159 11.691 13.7692 11.691 13.9272ZM11.9698 15.9484C11.9698 16.1621 11.8954 16.3434 11.7467 16.492C11.598 16.6407 11.4168 16.7151 11.2031 16.7151C10.9894 16.7151 10.8081 16.6407 10.6595 16.492C10.5108 16.3434 10.4364 16.1621 10.4364 15.9484C10.4364 15.7347 10.5108 15.5535 10.6595 15.4048C10.8081 15.2561 10.9894 15.1817 11.2031 15.1817C11.4168 15.1817 11.598 15.2561 11.7467 15.4048C11.8954 15.5535 11.9698 15.7347 11.9698 15.9484Z" fill="#A9A9A9"/>
</svg>
